<svg height="50" viewBox="0 0 50 50" width="50" xmlns="http://www.w3.org/2000/svg"><g fill="none" fill-rule="evenodd"><rect fill="#d6e5ff" fill-rule="nonzero" height="50" rx="5" width="50"/><path d="m34.5838218 17.7681728c.2344678-.5893939.5685794-1.0314326 1.0023446-1.3261295.4337654-.294697.9085555-.4420433 1.4243845-.4420433.7737437 0 1.4654132.2652233 2.0750294.7956778s.9144197 1.1728842.9144197 1.9273084c0 .3536364-.0937857.7426305-.2813599 1.1669941l-5.6975381 12.2711197c-.2579145.5893937-.6506421 1.0432211-1.1781946 1.3614937s-1.1078515.4774063-1.7409145.4774063c-.6330629 0-1.2075003-.1591337-1.7233293-.4774063-.5158292-.3182726-.9026952-.7721-1.1606097-1.3614937l-3.3411488-7.4616894-3.130129 7.4616894c-.2344678.5893937-.6154722 1.0432211-1.1430246 1.3614937s-1.1078515.4774063-1.7409144.4774063c-.633063 0-1.213362-.1591337-1.7409145-.4774063-.5275524-.3182726-.9320032-.7721-1.2133646-1.3614937l-5.6623681-12.2711197c-.1641274-.3536363-.2461899-.7308427-.2461899-1.1316306 0-.7779999.3223883-1.4322174.9671746-1.9626719.6447865-.5304545 1.3657639-.7956778 2.1629543-.7956778.5627227 0 1.0726824.1473463 1.5298946.4420433.4572121.2946969.8030468.7485233 1.0375146 1.361493l3.3411488 8.1689584 3.411489-8.1335949c.2344677-.5893939.5978873-1.0373265 1.0902696-1.3438114.4923823-.3064848 1.0199268-.4597249 1.5826494-.4597249.5627227 0 1.0902672.1532401 1.5826495.4597249.4923823.3064849.8558019.7544175 1.0902697 1.3438114l3.5169988 8.1689591z" stroke="#146aff" stroke-width="1.5"/></g></svg>