<svg height="50" viewBox="0 0 50 50" width="50" xmlns="http://www.w3.org/2000/svg"><g fill="none" fill-rule="evenodd"><rect fill="#edf1ff" fill-rule="nonzero" height="50" rx="5" width="50"/><g transform="translate(14 13)"><path d="m21.771688 23.9427416h-4.6092868v-4.621787h4.6092868zm-16.10833561 0h-4.60895345v-4.621787h4.60895345zm1.34808388-22.88548319h8.80321443v8.82692115h-8.80321443zm15.28745123 17.20643779h-2.3046434v-3.5118828c0-.2923088-.2360147-.5286293-.5271995-.5286293h-7.5268017v-3.2817461h4.4016073c.2910181 0 .5270328-.2364876.5270328-.5286292v-9.88417959c0-.29214159-.2360147-.52862921-.5270328-.52862921h-9.8576134c-.29118479 0-.52719947.23648762-.52719947.52862921v9.88417959c0 .2921416.23601468.5286292.52719947.5286292h4.4016072v3.2817461h-7.52713501c-.29118479 0-.52719947.2363205-.52719947.5286293v3.5118828h-2.30431005c-.29118478 0-.52719947.2363205-.52719947.5286292v5.6790454c0 .2921416.23601469.5286292.52719947.5286292h5.66335239c.29118478 0 .52719947-.2364876.52719947-.5286292v-5.6790454c0-.2923087-.23601469-.5286292-.52719947-.5286292h-2.3046434v-2.9832536h15.05393664v2.9832536h-2.3046434c-.2911847 0-.5271994.2363205-.5271994.5286292v5.6790454c0 .2921416.2360147.5286292.5271994.5286292h5.6636858c.2911848 0 .5271995-.2364876.5271995-.5286292v-5.6790454c0-.2923087-.2360147-.5286292-.5271995-.5286292z" fill="#25356e" stroke="#25356e" stroke-width=".543478"/><g fill="#6473a7"><path d="m9.15405797 4.17753623h3.42463773c.2530434 0 .4582608-.20492753.4582608-.4584058 0-.2531884-.2052174-.45826086-.4582608-.45826086h-3.42463773c-.2531884 0-.4584058.20507246-.4584058.45826086 0 .25347827.2052174.4584058.4584058.4584058z"/><path d="m14.4710141 5.62144928c0-.25333334-.172712-.4584058-.3857966-.4584058h-5.00376871c-.21308463 0-.38579662.20507246-.38579662.4584058 0 .25333333.17271199.45840579.38579662.45840579h5.00376871c.2130846 0 .3857966-.20507246.3857966-.45840579z"/><path d="m13.0369565 7.52362319c0-.25333333-.2052174-.4584058-.4582608-.4584058h-3.42463773c-.2531884 0-.4584058.20507247-.4584058.4584058s.2052174.4584058.4584058.4584058h3.42463773c.2530434 0 .4582608-.20507247.4582608-.4584058z"/></g></g></g></svg>