<?xml version="1.0" encoding="UTF-8"?>
<svg width="50px" height="50px" viewBox="0 0 50 50" version="1.1" xmlns="http://www.w3.org/2000/svg" xmlns:xlink="http://www.w3.org/1999/xlink">
    <title>monologo</title>
    <g id="Page-1" stroke="none" stroke-width="1" fill="none" fill-rule="evenodd">
        <g id="monologo">
            <rect id="Rectangle" fill="#D2E7FF" fill-rule="nonzero" x="0" y="0" width="50" height="50" rx="5"></rect>
            <path d="M25.84375,19.375 L33.15625,19.375 M25.84375,30.625 L33.15625,30.625 M19.375,21.90625 C18.4706715,21.90625 17.6350374,21.4237965 17.1828732,20.640625 C16.7307089,19.8574535 16.7307089,18.8925465 17.1828732,18.109375 C17.6350374,17.3262035 18.4706715,16.84375 19.375,16.84375 C20.7729708,16.84375 21.90625,17.9770292 21.90625,19.375 C21.90625,20.7729708 20.7729708,21.90625 19.375,21.90625 Z M19.375,33.15625 C17.9770292,33.15625 16.84375,32.0229708 16.84375,30.625 C16.84375,29.2270292 17.9770292,28.09375 19.375,28.09375 C20.7729708,28.09375 21.90625,29.2270292 21.90625,30.625 C21.90625,32.0229708 20.7729708,33.15625 19.375,33.15625 Z" id="Shape" stroke="#007AFF" stroke-width="1.6875" stroke-linecap="round" stroke-linejoin="round"></path>
        </g>
    </g>
</svg>