<svg height="50" viewBox="0 0 50 50" width="50" xmlns="http://www.w3.org/2000/svg"><g fill="none"><rect fill="#2366bd" height="50" rx="5" width="50"/><g transform="translate(9 9)"><circle cx="15.600001" cy="15.600001" fill="#0f4d9d" r="15.600001"/><path d="m10.4000006 8.31987046v10.91311064c0 1.00984.355043 1.8701801 1.066065 2.5808901.7105541.71084 1.5709851 1.0660001 2.5808252 1.0660001h4.3485002c1.0099701 0 1.8699201-.3551601 2.5810202-1.0660001.71045-.71071 1.06613-1.5710501 1.06613-2.5808901v-3.3385302c0-1.0101001-.35568-1.8700501-1.06613-2.5810202-.7111001-.71058-1.5710501-1.066091-2.5810202-1.066091h-4.7130202c0 .775021.37401 1.4268411 1.12229 1.9555511.7477601.5291 1.6642601.81211 2.7492402.84981h.84149c.56095.01885.8416201.29939.8416201.8417501v3.3385302c0 .56095-.2806701.84149-.8416201.84149h-4.3485002c-.5609501 0-.8414901-.28054-.8414901-.84149v-7.0416454c0-1.0659351-.273962-1.9777811-.821834-2.73522618-.547989-.75744504-1.2091171-1.13623906-1.9835661-1.13623906z" fill="#fff"/></g></g></svg>