<svg height="24" viewBox="0 0 24 24" width="24" xmlns="http://www.w3.org/2000/svg"><g fill-rule="evenodd"><path d="m0 0h24v24h-24z" opacity="0"/><path d="m.09935458 19.2139532c.2011838.475995.6732125.7860468 1.1961132.7860468h16.40862472c.7155763 0 1.295553-.5713687 1.295553-1.2768894v-3.8294453h-2.5912833v2.5529054h-11.99995122l4.161049-5.8860931c.475042-.4714534.5041118-1.2234382.0661159-1.7286043l-4.5311563-7.2786186h12.30429712v2.4231202h2.5912833v-3.6996602c0-.7051713-.5797994-1.2767147-1.295553-1.2767147h-16.40897922c-.5053525 0-.9646189.2897893-1.1762607.7422029-.2116419.4524136-.1368405.9846546.1909031 1.3633545l5.5806801 8.4900041-5.5142097 7.2281369c-.3688666.3657738-.4780553.9140851-.277226 1.3902548z" fill-rule="nonzero" transform="translate(2 2)"/></g></svg>