<svg clip-rule="evenodd" fill-rule="evenodd" height="24" stroke-linecap="round" stroke-linejoin="round" viewBox="0 0 24 24" width="24" xmlns="http://www.w3.org/2000/svg"><g transform="translate(4.51819 3)"><path d="m1.707 3.811c-.39-.39-1.024-.39-1.414 0-.391.391-.391 1.024 0 1.414l5.775 5.775-5.775 5.775c-.391.39-.391 1.023 0 1.414.39.39 1.024.39 1.414 0l5.775-5.775 5.775 5.775c.39.39 1.023.39 1.414 0 .39-.391.39-1.024 0-1.414l-5.775-5.775 5.775-5.775c.39-.39.39-1.023 0-1.414-.391-.39-1.024-.39-1.414 0l-5.775 5.775z" fill-rule="nonzero"/><path d="m3.982.5h7" fill="none" stroke="#000" stroke-width="2"/></g></svg>