<svg height="22" viewBox="0 0 22 22" width="22" xmlns="http://www.w3.org/2000/svg"><g fill="none" fill-rule="evenodd"><path d="m11 0c-6.07513225 0-11 4.92486775-11 11 0 6.0751322 4.92486775 11 11 11 6.0751322 0 11-4.9248678 11-11 0-6.07513225-4.9248678-11-11-11zm0 2c4.9705627 0 9 4.02943725 9 9 0 4.9705627-4.0294373 9-9 9-4.97056275 0-9-4.0294373-9-9 0-4.97056275 4.02943725-9 9-9z" fill="#f03d3d" fill-rule="nonzero"/><g stroke="#f03d3d" stroke-linecap="round" stroke-linejoin="round" stroke-width="1.25"><path d="m16 6-10 10"/><path d="m6 6 10 10"/></g></g></svg>