<svg height="22" viewBox="0 0 22 22" width="22" xmlns="http://www.w3.org/2000/svg"><g fill="none"><path d="m11 0c-6.07513225 0-11 4.92486775-11 11 0 6.0751322 4.92486775 11 11 11 6.0751322 0 11-4.9248678 11-11 0-6.07513225-4.9248678-11-11-11zm0 2c4.9705627 0 9 4.02943725 9 9 0 4.9705627-4.0294373 9-9 9-4.97056275 0-9-4.0294373-9-9 0-4.97056275 4.02943725-9 9-9z" fill="#ff7474"/><path d="m15.2344219 6.85665702c.3553085-.42281711.986104-.47754362 1.4089211-.12223511.3902927.3279771.4669461.89068862.1969697 1.30787603l-.0747346.10104504-5.8823535 7.00000002c-.3450969.4106654-.94571632.471278-1.36391322.1580542l-.09306937-.0789294-4.11764657-3.940604c-.39900795-.3818522-.41291544-1.0148645-.03106325-1.41387241.35247894-.36831503.91896407-.40849713 1.31786051-.11216252l.09601186.08109926 3.34659544 3.20207187z" fill="#f00"/></g></svg>