<svg height="22" viewBox="0 0 22 22" width="22" xmlns="http://www.w3.org/2000/svg"><g fill="none" fill-rule="evenodd"><circle cx="11" cy="11" opacity=".096266" r="10" stroke="#ec0d0d" stroke-width="2"/><g fill="#ec0d0d" fill-rule="nonzero"><path d="m10.0247761 20.9528978c0-.5417911.4380299-.9850746.9850746-.9850746.5414627 0 .9847463.4380298.9847463.9850746 0 .5414627-.4380298.9850746-.9847463.9850746-.541791 0-.9850746-.4436119-.9850746-.9850746z" opacity=".4"/><path d="m6.86761194 21.146627c-.50764179-.2068656-.7440597-.7831343-.53686567-1.2858507.20686567-.5020597.78313433-.743403 1.28552239-.5368657.50238806.207194.74373134.7831343.53686567 1.2907761-.15761194.3792538-.52701493.6061493-.91119403.6061493-.1280597-.0003284-.25644776-.0252836-.37432836-.074209z" opacity=".44"/><path d="m13.8662388 20.5785694c-.2065373-.502388.030209-1.078985.5322687-1.2855224.502388-.207194 1.0786567.0292239 1.2904477.531612.2068657.5020597-.0295522 1.0786567-.5319403 1.285194-.1231343.0545075-.251194.0788063-.3789253.0788063-.3848359.000328-.7542389-.2308361-.9118508-.6100899z" opacity=".34"/><path d="m3.35089552 18.8720149c-.38385074-.3845074-.38910448-1.0097015-.00492537-1.3938806.38385075-.3841791 1.00970149-.3841791 1.3938806 0 .38385074.3841791.38385074 1.0051045.00492537 1.3886269-.19208955.1976716-.44820896.2912537-.69940299.2912537-.25119403-.0003283-.50238806-.0939104-.69447761-.286z" opacity=".5"/><path d="m17.2749254 18.8819328c-.3891045-.3841791-.3891045-1.0093731-.0055821-1.3935522.3845074-.3845075 1.0100298-.3845075 1.3942089 0 .3841791.3841791.3841791 1.0093731 0 1.3935522-.1920895.1920896-.4432835.286-.6944776.286-.251194 0-.5020597-.0939104-.6941492-.286z" opacity=".3"/><path d="m.89784243 15.2686888c-.2121194-.502388.02429851-1.0786567.52668657-1.2904477.50238806-.2068657 1.07865672.0295522 1.29044776.5319403.20686567.5020597-.02955224 1.0783283-.5319403 1.2855224-.12313432.0538507-.25119403.0784779-.37925373.0784779-.38385074.000328-.74832836-.2262391-.9059403-.6054929z" opacity=".54"/><path d="m19.8090698 15.8974037c-.5020597-.2121194-.7440597-.7880597-.5322687-1.2904478.207194-.5027164.7831343-.738806 1.2858508-.5322686.5020597.207194.7388059.7880597.5319403 1.2907761-.157612.3789253-.5224179.6058209-.9115224.6058209-.1231344 0-.2508657-.0249553-.374-.0738806z" opacity=".26"/><path d="m0 10.99c0-.5467164.43802985-.99.98507463-.99.54146268 0 .98507462.4380299.98507462.9850746 0 .5414627-.43835821.9850748-.98507462.9850748-.54179105.0003282-.98507463-.4383584-.98507463-.9801494z" opacity=".58"/><path d="m20.0000407 11.0245243c0-.0147761 0-.0246269 0-.0344776-.0049254-.5467164.4380298-.99.9801492-.99.5414627-.00525373.9850747.4334328.99.9798209v.0249552.0197015c0 .5414627-.4436119.9850746-.9850746.9850746-.541791 0-.9850746-.4436119-.9850746-.9850746z" opacity=".22"/><path d="m.1641791 11.121853v.0049254c0-.0049254 0-.0049254 0-.0049254z"/><path d="m1.31095749 8.26480824c-.50238806-.20686568-.74373134-.78313433-.53686567-1.28552239.20686567-.50731343.78313433-.74373134 1.28552239-.53686567s.7440597.78313433.53686567 1.28552238c-.15728358.37925374-.52668657.61074627-.91086567.61074627-.12313433 0-.25152239-.0242985-.37465672-.07388059z" opacity=".8"/><path d="m19.1807164 7.16810094c-.211791-.50238806.0249552-1.07865672.5270149-1.29044777.5027165-.21179104 1.0786568.02462687 1.2904478.52701493.207194.50238806-.0292239 1.07865672-.5270149 1.29044776-.1277314.04925373-.2557911.07420896-.3835224.07420896-.3845075-.00032836-.7489851-.22689553-.9069254-.60122388z" opacity=".18"/><path d="m3.02048653 4.85185301c-.38385075-.3841791-.38910448-1.00477612-.00492538-1.39388059h.00492538c.37925373-.38417911 1.00510448-.38417911 1.38895522 0 .38417911.37925373.38943284 1.00510447.00492537 1.39388059-.19208955.19208955-.44328358.28567164-.69940298.28567164-.25086567-.00032835-.5020597-.09358209-.69447761-.28567164z" opacity=".837556"/><path d="m17.2453731 4.48632757c-.3841791-.38417911-.3894328-1.00970149-.0049253-1.3938806.3845074-.38910448 1.0097015-.38910448 1.3938806-.00492537.3841791.3841791.3894328 1.00477612.0049253 1.39388059-.1920895.19208956-.4436119.29059702-.699403.29059702-.251194 0-.5027164-.09850746-.6944776-.28567164z" opacity=".14"/><path d="m14.3731749 2.59647988c-.5099046-.20686567-.7555253-.78313433-.5448981-1.28552239.2099608-.50238806.7948513-.74373134 1.3044227-.53686567.5099046.20686567.7548588.78313433.5448981 1.28585074-.1596368.37925374-.5295676.61041792-.9244938.61041792-.1249766-.00032836-.2549523-.02462687-.3799289-.0738806z" opacity=".09913"/></g></g></svg>