<svg height="22" viewBox="0 0 22 22" width="22" xmlns="http://www.w3.org/2000/svg"><g fill="none" fill-rule="evenodd"><g transform="translate(-1 6)"><path d="m1 8h3m-1 3 1-2.91580468" stroke="#434343" stroke-linecap="round" stroke-width="2" transform="matrix(0 -1 1 0 -5.98047 11.92139)"/><path d="m16.2344219.856657c.3553085-.4228171.986104-.4775436 1.4089211-.1222351.3902927.3279771.4669461.8906886.1969697 1.307876l-.0747346.1010451-5.8823535 7c-.3450969.4106654-.9457163.471278-1.3639132.1580542l-.0930694-.0789294-4.1176466-3.940604c-.39900791-.3818522-.4129154-1.0148645-.0310632-1.4138724.3524789-.368315.9189641-.4084971 1.3178605-.1121625l.0960119.0810992 3.3465954 3.2020719z" fill="#2d71f1" fill-rule="nonzero"/></g><path d="m11 21c5.5228475 0 10-4.4771525 10-10s-4.4771525-10-10-10-10 4.4771525-10 10 4.4771525 10 10 10z" stroke="#434343" stroke-dasharray="40 10" stroke-linecap="round" stroke-linejoin="round" stroke-width="2"/></g></svg>