<svg height="20" viewBox="0 0 20 20" width="20" xmlns="http://www.w3.org/2000/svg"><g style="fill:none;fill-rule:evenodd;stroke-linecap:round;stroke-linejoin:round;stroke:#000;stroke-width:1.5"><g transform="translate(2 5)"><path d="m.64406076 10h5.24191915c.39790434 0 .71101171-.32296552.63171279-.70448276-.21886501-1.05331034-.93382404-2.9162069-3.25266532-2.9162069-2.31883423 0-3.03376506 1.86289656-3.25267236 2.9162069-.07929187.38151724.2338014.70448276.63170574.70448276z"/><path d="m13.6705227 6.37931034c1.465303 0 2.0654372 1.48131035 2.3077042 2.54896552.1308256.57655173-.3458138 1.07172414-.9494723 1.07172414h-.6533526"/><ellipse cx="3.265027" cy="1.896552" rx="1.938418" ry="1.896552"/><path d="m12.9656435 3.79310345c1.0705706 0 1.7621981-.84911724 1.7621981-1.89655173 0-1.04743448-.6916275-1.89655172-1.7621981-1.89655172"/></g><path d="m11.5 1.5v1"/><path d="m11.5 4.5v1"/><path d="m11.5 7.5v1"/><path d="m11.5 10.5v1"/><path d="m11.5 13.5v1"/><path d="m11.5 16.5v1"/></g></svg>