<svg height="20" viewBox="0 0 20 20" width="20" xmlns="http://www.w3.org/2000/svg"><g style="stroke:#00665f;stroke-width:1.5;fill:none;fill-rule:evenodd;stroke-linecap:round;stroke-linejoin:round" transform="translate(2 4)"><path d="m.83727899 13h6.8144949c.51727564 0 .92431521-.4198552.82122662-.9158276-.28452451-1.3693034-1.21397125-3.79106895-4.22846491-3.79106895-3.0144845 0-3.94389458 2.42176555-4.22847407 3.79106895-.10307943.4959724.30394182.9158276.82121746.9158276z"/><path d="m9.33904367 7.40626534c.85728573.0183087 1.55776223.37552573 2.10142943 1.07165109.3210022.41101946.519098.91062245.5942872 1.49880898"/><ellipse cx="4.244536" cy="2.465517" rx="2.519943" ry="2.465517"/><path d="m9.0553365 4.93103448c1.3917418 0 2.2908576-1.10385241 2.2908576-2.46551724s-.8991158-2.46551724-2.2908576-2.46551724"/><path d="m11.1299576 11.7586207 1.0750118 1.2413793 2.7950306-3.72413793"/></g></svg>