<svg height="24" viewBox="0 0 24 24" width="24" xmlns="http://www.w3.org/2000/svg"><g fill="none" fill-rule="evenodd"><path d="m0 0h24v24h-24z" fill="#000" opacity="0"/><g stroke="#000" stroke-linecap="round" stroke-linejoin="round" stroke-width="1.420361" transform="translate(3 6)"><path d="m.85719861 13h6.97661785c.5295821 0 .94630551-.4198552.84076435-.9158276-.29129361-1.3693034-1.24285272-3.79106895-4.32906389-3.79106895-3.0862018 0-4.03772338 2.42176555-4.32907327 3.79106895-.10553178.4959724.31117286.9158276.84075496.9158276z"/><path d="m10.2089148 8.29310345c1.950213 0 2.7489485 1.92570345 3.0713885 3.31365515.1741195.7495173-.4602533 1.3932414-1.2636795 1.3932414h-.8695653"/><path d="m14.8996331 8.29310345c1.950213 0 2.7489485 1.92570345 3.0713885 3.31365515.1741194.7495173-.4602533 1.3932414-1.2636795 1.3932414h-.8695654"/><ellipse cx="4.345517" cy="2.465517" rx="2.579895" ry="2.465517"/><path d="m9.2707711 4.93103448c1.4248526 0 2.3453592-1.10385241 2.3453592-2.46551724s-.9205066-2.46551724-2.3453592-2.46551724"/><path d="m13.9614894 4.93103448c1.4248526 0 2.3453591-1.10385241 2.3453591-2.46551724s-.9205065-2.46551724-2.3453591-2.46551724"/></g></g></svg>