<svg height="24" viewBox="0 0 24 24" width="24" xmlns="http://www.w3.org/2000/svg"><g fill="none" fill-rule="evenodd"><path d="m0 0h24v24h-24z" fill="#000" opacity="0"/><g stroke="#ca0d0d"><g opacity=".598107" stroke-width="1.8" transform="translate(3 3)"><path d="m1.15930936 18h9.43545444c.7162278 0 1.2798211-.5813379 1.137083-1.268069-.393957-1.8959585-1.6808832-5.2491724-5.85479752-5.2491724-4.17390161 0-5.4607771 3.3532139-5.85481024 5.2491724-.14272536.6867311.42084252 1.268069 1.13707032 1.268069z"/><path d="m13.8069409 11.4827586c2.6375454 0 3.7177869 2.6663587 4.1538675 4.5881379.2354861 1.0377931-.6224648 1.9291035-1.7090502 1.9291035h-1.1760346" opacity=".398671" stroke-linecap="round"/><ellipse cx="5.877049" cy="3.413793" rx="3.489152" ry="3.413793"/><path d="m12.5381582 6.82758621c1.9270271 0 3.1719566-1.52841104 3.1719566-3.41379311 0-1.88538206-1.2449295-3.4137931-3.1719566-3.4137931" opacity=".398671" stroke-linecap="round"/></g><g stroke-linecap="round" stroke-width="2.7"><path d="m20.357143 8.142857-7.714286 7.714286"/><path d="m12.642857 8.142857 7.714286 7.714286"/></g></g></g></svg>