<svg height="24" viewBox="0 0 24 24" width="24" xmlns="http://www.w3.org/2000/svg"><g fill="none"><path d="m0 0h24v24h-24z" fill="#000" opacity="0"/><path d="m12 2c-5.5228475 0-10 4.4771525-10 10s4.4771525 10 10 10 10-4.4771525 10-10c0-2.6521649-1.0535684-5.19570403-2.9289322-7.07106781-1.8753638-1.87536379-4.4189029-2.92893219-7.0710678-2.92893219z" fill="#000"/><path d="m14.7 8.39-3.78 5-1.63-2.11c-.33965512-.436305-.96869505-.5146551-1.405-.175s-.51465512.968695-.175 1.405l2.43 3.11c.1908221.241492.4822197.381658.79.3800145.3094966-.0007584.6012074-.1447675.79-.3900145l4.57-6c.3368937-.4418278.2518278-1.0731063-.19-1.41s-1.0731063-.2518278-1.41.19z" fill="#fff"/></g></svg>