<svg fill="none" height="24" viewBox="0 0 24 24" width="24" xmlns="http://www.w3.org/2000/svg"><path clip-rule="evenodd" d="m3.49997 12.8995c-.78105.781-.78105 2.0473 0 2.8284l3.85788 3.8579h-3.27209c-.55229 0-1 .4477-1 1s.44771 1 1 1h16.00004c.5522 0 1-.4477 1-1s-.4478-1-1-1h-9.13l9.5147-9.5148c.7811-.78101.7811-2.04734 0-2.82839l-4.2426-4.24264c-.7811-.78105-2.0474-.78105-2.8284 0zm4.32582-1.4974-2.91161 2.9116 4.24265 4.2426 2.91157-2.9116zm1.41421-1.41423 4.2426 4.24263 5.5737-5.57367-4.2426-4.24265z" fill="#f96401" fill-rule="evenodd"/></svg>