<svg height="18" viewBox="0 0 14 18" width="14" xmlns="http://www.w3.org/2000/svg"><g fill="#f96401" fill-rule="evenodd"><path d="m.09342198 7.42302222c-.19928-.56249432-.07974596-1.21772607.35861758-1.66902761l4.91097415-5.05591837c.90410645-.93076832 2.36992261-.93076832 3.2739519 0l4.91100499 5.05591837c.4383944.45134921.5579285 1.10668424.358525 1.66926595.0250798.07825441.0385843.16183171.0385843.24874575v8.73907159c0 .8775617-.690967 1.5889221-1.5433706 1.5889221h-10.80356279c-.85238039 0-1.54337053-.7113604-1.54337053-1.5889221v-8.73907159c0-.08699348.01356623-.17065023.038646-.24898409zm1.44995031-.54549285 4.91095872-5.05591836c.30134309-.31025293.7899742-.31025293 1.0913173 0l4.91100499 5.05591836h-.023382v.02408806l-4.88762299 5.03179857c-.3013431.3103164-.78997421.3103164-1.0913173 0zm10.85833701 2.30363516-3.76474369 3.87585767c-.90402929.9307111-2.36984545.9307111-3.2739519 0l-3.7648672-3.87601656v7.23007226h10.80356279z"/><path d="m6.17348211 8.34184105c0-.21939041.17274175-.39723052.38584263-.39723052h.77168527c.21310088 0 .38584263.17784011.38584263.39723052 0 .21939042-.17274175.39723053-.38584263.39723053h-.77168527c-.21310088 0-.38584263-.17784011-.38584263-.39723053z" fill-rule="nonzero"/><path d="m6.55932474 9.53353263c-.21310088 0-.38584263.17784011-.38584263.39723053 0 .21939044.17274175.39723054.38584263.39723054h.77168527c.21310088 0 .38584263-.1778401.38584263-.39723054 0-.21939042-.17274175-.39723053-.38584263-.39723053z" fill-rule="nonzero"/><path d="m5.82409003 6.65328559c-.2617595-.28471498-.42229318-.66908716-.42229318-1.09205822h.77168526c0 .43876892.3454835.79446105.77168527.79446105s.77168526-.35569213.77168526-.79446105h.77168526c0 .42297106-.16054911.80734324-.42230476 1.09205822.49106192.2803375.87269887.73913478 1.06226335 1.29132494h.51756931c.21310089 0 .3858426.17784805.3858426.39723052 0 .21938632-.17274171.39723053-.3858426.39723053h-.38584263v.79446105h.38584263c.21310089 0 .3858426.17784011.3858426.39723053 0 .21939044-.17274171.39723054-.3858426.39723054h-.38584263v.794461h.38584263c.21310089 0 .3858426.1778401.3858426.3972306 0 .2193904-.17274171.3972305-.3858426.3972305h-.51756931c-.31781857.925706-1.17535382 1.5889221-2.18332911 1.5889221-1.00799073 0-1.86551826-.6632161-2.18332526-1.5889221h-.51757317c-.21309317 0-.38584263-.1778401-.38584263-.3972305 0-.2193905.17274946-.3972306.38584263-.3972306h.38584263v-.794461h-.38584263c-.21309317 0-.38584263-.1778401-.38584263-.39723054 0-.21939042.17274946-.39723053.38584263-.39723053h.38584263v-.79446105h-.38584263c-.21309317 0-.38584263-.17784421-.38584263-.39723053 0-.21938247.17274946-.39723052.38584263-.39723052h.51757317c.18957606-.55219016.57120143-1.01098744 1.06224791-1.29132494zm-.42229318 4.46916911v-2.38338312c0-.87753784.69099013-1.5889221 1.54337053-1.5889221.85236495 0 1.54337052.71138426 1.54337052 1.5889221v2.38338312c0 .877522-.69100557 1.5889221-1.54337052 1.5889221-.8523804 0-1.54337053-.7114001-1.54337053-1.5889221z"/></g></svg>