<svg height="24" viewBox="0 0 24 24" width="24" xmlns="http://www.w3.org/2000/svg"><g fill="none" fill-rule="evenodd"><path d="m0 0h24v24h-24z" fill="#000" opacity="0"/><g stroke="#000" stroke-linecap="round" stroke-linejoin="round"><path d="m2.2956296 18.0041443 7.24612597-14.48162446c1.01594463-2.03044487 3.90833703-2.02990683 4.92359323.00089674l7.2395173 14.48169342c.91709 1.834584-.414143 3.99489-2.4620031 3.99489h-14.48568462c-2.04831446 0-3.37960252-2.1611338-2.46154878-3.9958557z" stroke-width="2.069391"/><g stroke-width=".87931" transform="translate(8 10)"><path d="m.48064453 5.63459457.60733799.09511725c.4483366.07017931.7685187.4808276.73549801.9434483l-.04474483.6270345c-.01303173.18267587.08428138.35464829.24545657.43420691l.44920281.22129656c.16117519.07955863.35363314.04976552.48528005-.0742069l.45136556-.42659311c.33280003-.31464829.84628974-.31464829 1.17947598 0l.45136556.42659311c.13164139.12446897.32369658.15376553.4852966.0742069l.45004143-.22173794c.16077243-.07911724.25765519-.25064828.2446345-.43282759l-.0448-.62797244c-.03299311-.4626207.28717244-.87326899.73550352-.9434483l.60733799-.09511725c.17682761-.02753103.31933796-.16308966.3592828-.34173794l.11078621-.4968276c.04000001-.17864828-.03084138-.36397242-.17853794-.46708967l-.50697937-.35508966c-.374069-.26217932-.48833108-.77412417-.26240002-1.17632556l.3062621-.54483863c.08904828-.1586538.07431725-.35730208-.03735173-.50039726l-.31062072-.39863174c-.11166898-.14310069-.29760003-.20220138-.46874488-.14843035l-.58736557.18398346c-.43398625.13598345-.89666216-.09199449-1.06350356-.52350898l-.22504829-.58350347c-.06604139-.17064828-.22720003-.28263725-.40662074-.28219717l-.49787591.00133647c-.1794207.00044138-.34013796.11332414-.40529659.28441932l-.21942071.57683312c-.16507588.43418484-.62990903.66393933-1.0652139.52706209l-.61168006-.19197794c-.17160278-.05421793-.35841107.00532966-.47005798.14931863l-.30845244.39907311c-.11164691.14443035-.1251145.34352553-.03431725.50217381l.31322486.54617381c.23068692.40260967.11773243.91946485-.2584883 1.18302348l-.50090488.35106208c-.1477076.10355863-.21851588.28888277-.17854898.46708967l.1107807.4968276c.03953104.17908966.18202484.31464829.35884141.34217932z"/><path d="m4.87784773 3.12215312c.48468971.48474484.48468971 1.27095176 0 1.7556966-.48474487.48468967-1.27095185.48468967-1.75569673 0-.48471177-.48474484-.48471177-1.27095176 0-1.7556966.48474488-.48471174 1.27095186-.48471174 1.75569673 0z"/></g></g></g></svg>