<svg height="50" viewBox="0 0 50 50" width="50" xmlns="http://www.w3.org/2000/svg"><g fill="none" fill-rule="evenodd"><rect fill="#eceef2" fill-rule="nonzero" height="50" rx="5" width="50"/><g stroke="#626262" stroke-linecap="round" stroke-linejoin="round" stroke-width="2" transform="translate(16 16)"><path d="m19 9.17241379-2.0776828-7.27168c-.3214275-1.12507517-1.3496551-1.90073379-2.5197931-1.90073379h-9.80504824c-1.17008552 0-2.19840483.77567172-2.51985862 1.90073379l-2.07761724 7.27168"/><path d="m7.15998621 9.98338621c-.3381869-.44053793-.81179793-.81097242-1.36714828-.81097242h-5.79283793v7.20689651c0 1.4474069 1.17332207 2.6206897 2.62068966 2.6206897h13.75862064c1.4474069 0 2.6206897-1.1732828 2.6206897-2.6206897v-7.20689651h-5.7929034c-.5553242 0-1.0288828.37043449-1.3670828.81097242-.5389448.70195169-1.3866069 1.15454479-2.3400138 1.15454479s-1.80106897-.4525931-2.34001379-1.15454479z"/></g></g></svg>