<svg height="50" viewBox="0 0 50 50" width="50" xmlns="http://www.w3.org/2000/svg"><g fill="none" fill-rule="evenodd"><rect fill="#e7f7ef" fill-rule="nonzero" height="50" rx="5" width="50"/><g fill="#0b8090" transform="matrix(0 1 1 0 12 14)"><rect fill-rule="nonzero" height="11.818182" opacity=".5" rx="1.222222" width="12.222222" x="4.888889" y="9.454545"/><path d="m18.3333333 2.36363636h-14.66666663c-.67500889 0-1.22222223.52912364-1.22222223 1.18181819v18.90909095c0 .6527181.54721334 1.1818181 1.22222223 1.1818181h14.66666663c.6750334 0 1.2222223-.5291 1.2222223-1.1818181v-18.90909095c0-.65269455-.5471889-1.18181819-1.2222223-1.18181819zm-14.66666663-2.36363636c-2.02503889 0-3.66666667 1.58735909-3.66666667 3.54545455v18.90909095c0 1.9581545 1.64162778 3.5454545 3.66666667 3.5454545h14.66666663c2.0251 0 3.6666667-1.5873 3.6666667-3.5454545v-18.90909095c0-1.95809546-1.6415667-3.54545455-3.6666667-3.54545455z"/><path d="m4.88888889 5.90909091c0-.65269455.54721333-1.18181818 1.22222222-1.18181818h4.88888889c.6750333 0 1.2222222.52912363 1.2222222 1.18181818 0 .65269454-.5471889 1.18181818-1.2222222 1.18181818h-4.88888889c-.67500889 0-1.22222222-.52912364-1.22222222-1.18181818z" fill-rule="nonzero"/></g></g></svg>