<svg height="50" viewBox="0 0 50 50" width="50" xmlns="http://www.w3.org/2000/svg"><g fill="none" fill-rule="evenodd"><rect fill="#f4f1dd" fill-rule="nonzero" height="50" rx="5" width="50"/><g stroke="#464436" stroke-linecap="round" stroke-linejoin="round" stroke-width="2" transform="translate(13 14)"><path d="m4.5 21.875c-1.86396 0-3.375-1.5111-3.375-3.375s1.51104-3.375 3.375-3.375"/><path d="m19.5 21.875c1.8639 0 3.375-1.5111 3.375-3.375s-1.5111-3.375-3.375-3.375"/><path d="m1.125 3.5c0-1.86396 1.51104-3.375 3.375-3.375"/><path d="m22.875 3.5c0-1.86396-1.5111-3.375-3.375-3.375"/><path d="m4.875.125v15"/><path d="m19.125.125v15"/><path d="m1.125 18.5v-15"/><path d="m22.875 18.5v-15"/><path d="m4.5 21.875h15"/><path d="m5.25 3.125h13.5"/><path d="m7.125 17.375h.75"/><path d="m11.625 17.375h.75v-2.25"/><path d="m12.375 11.375v-.75"/><path d="m12.375 6.875v-.75"/></g></g></svg>