<svg height="50" viewBox="0 0 50 50" width="50" xmlns="http://www.w3.org/2000/svg"><g fill="none" fill-rule="evenodd"><rect fill="#fff0c1" fill-rule="nonzero" height="50" rx="5" width="50"/><g stroke-linecap="round" stroke-linejoin="round" stroke-width="2"><path d="m14.125 15.625c0-.82842.67158-1.5 1.5-1.5h5.25c.82842 0 1.5.67158 1.5 1.5v5.25c0 .82842-.67158 1.5-1.5 1.5h-5.25c-.82842 0-1.5-.67158-1.5-1.5z" stroke="#c8681a"/><path d="m14.125 29.125c0-.82845.67158-1.5 1.5-1.5h5.25c.82842 0 1.5.67155 1.5 1.5v5.25c0 .82845-.67158 1.5-1.5 1.5h-5.25c-.82842 0-1.5-.67155-1.5-1.5z" stroke="#6f4320"/><path d="m27.625 15.625c0-.82842.67155-1.5 1.5-1.5h5.25c.82845 0 1.5.67158 1.5 1.5v5.25c0 .82842-.67155 1.5-1.5 1.5h-5.25c-.82845 0-1.5-.67158-1.5-1.5z" stroke="#e99e60"/><path d="m27.625 29.125c0-.82845.67155-1.5 1.5-1.5h5.25c.82845 0 1.5.67155 1.5 1.5v5.25c0 .82845-.67155 1.5-1.5 1.5h-5.25c-.82845 0-1.5-.67155-1.5-1.5z" stroke="#c8681a"/></g></g></svg>