<svg height="50" viewBox="0 0 50 50" width="50" xmlns="http://www.w3.org/2000/svg"><g fill="none"><rect fill="#ffead8" height="50" rx="5" width="50"/><g transform="translate(13 13)"><path d="m16.8 14.4h.6c.9924 0 1.8-.8076 1.8-1.8v-10.8c0-.9924-.8076-1.8-1.8-1.8h-15.6c-.9924 0-1.8.8076-1.8 1.8v17.4l6.3996-4.8zm-11.1996-2.4-3.2004 2.4v-12h14.4v9.6z" fill="#fc4400"/><path d="m22.2 7.2h-.6v7.2012c0 1.32-1.0716 2.3916-2.388 2.3988h-12.012v.6c0 .9924.8076 1.8 1.8 1.8h8.6004l6.3996 4.8v-15c0-.9924-.8076-1.8-1.8-1.8z" fill="#eba383"/></g></g></svg>