<?xml version="1.0" encoding="UTF-8"?><svg width="24px" stroke-width="1.5" height="24px" viewBox="0 0 24 24" fill="none" xmlns="http://www.w3.org/2000/svg" color="#ffffff"><path d="M19 20H5a2 2 0 01-2-2V9a2 2 0 012-2h14a2 2 0 012 2v9a2 2 0 01-2 2zM7 7V3.6a.6.6 0 01.6-.6h8.8a.6.6 0 01.6.6V7M10 3v4M12 3v4" stroke="#ffffff" stroke-width="1.5"></path><path d="M16.5 14a.5.5 0 110-1 .5.5 0 010 1z" fill="#ffffff" stroke="#ffffff" stroke-width="1.5" stroke-linecap="round" stroke-linejoin="round"></path></svg>