<svg height="40" viewBox="0 0 40 40" width="40" xmlns="http://www.w3.org/2000/svg"><g fill="none" fill-rule="evenodd"><rect fill="#eeeff8" fill-rule="nonzero" height="40" rx="4" width="40"/><g transform="translate(10 9)"><g stroke="#6b6f8d" stroke-linecap="round" stroke-width="1.5"><path d="m9.333333 15.325h5.5"/><path d="m5.166667 15.325h.416666"/><path d="m9.333333 5.25h5.5"/><path d="m5.166667 5.25h.416666"/></g><path d="m0 2.83333333c0-1.56480277 1.22104545-2.83333333 2.72727273-2.83333333h14.54545457c1.5062727 0 2.7272727 1.26853056 2.7272727 2.83333333v16.33333337c0 1.56485-1.221 2.8333333-2.7272727 2.8333333h-14.54545457c-1.50622728 0-2.72727273-1.2684833-2.72727273-2.8333333zm2.72727273-.94444444h14.54545457c.5020909 0 .9090909.42284667.9090909.94444444v5.72222223h-16.36363638v-5.72222223c0-.52159777.40701818-.94444444.90909091-.94444444zm-.90909091 8.55555551v8.7222223c0 .5216166.40701818.9444444.90909091.9444444h14.54545457c.5020909 0 .9090909-.4228278.9090909-.9444444v-8.7222223z" fill="#484b6c"/></g></g></svg>