<svg height="50" viewBox="0 0 50 50" width="50" xmlns="http://www.w3.org/2000/svg"><g fill="none" fill-rule="evenodd"><rect fill="#eaf3ec" fill-rule="nonzero" height="50" rx="5" width="50"/><path d="m0 17.8448276 4.35602552-5.5410966c1.23519517-1.5712965 3.59805655-1.6226896 4.90044345-.1065931l3.82973793 4.4580345m-3.30724138-3.8497241c1.64521378-2.0926828 3.93744138-5.0575414 4.08670348-5.25044002.0052344-.0069.0103103-.01341931.0157034-.02025587 1.2375586-1.56112896 3.5927586-1.60898482 4.8923379-.09628275l3.829738 4.45808204m-19.43103451 11.1034483h16.65517241c1.7521241 0 3.1724138-1.4202897 3.1724138-3.1724138v-16.65517241c0-1.75207655-1.4202897-3.17241379-3.1724138-3.17241379h-16.65517241c-1.75207655 0-3.17241379 1.42033724-3.17241379 3.17241379v16.65517241c0 1.7521241 1.42033724 3.1724138 3.17241379 3.1724138z" stroke="#2e7366" stroke-linecap="round" stroke-linejoin="round" stroke-width="2" transform="translate(14 14)"/></g></svg>