<svg height="50" viewBox="0 0 50 50" width="50" xmlns="http://www.w3.org/2000/svg"><g fill="none" fill-rule="evenodd"><rect fill="#e6e6ed" fill-rule="nonzero" height="50" rx="5" width="50"/><g fill="#4a4a60" transform="translate(13 15)"><g fill-rule="nonzero"><path d="m4 14c0-.5523.44772-1 1-1h8c.5523 0 1 .4477 1 1s-.4477 1-1 1h-8c-.55228 0-1-.4477-1-1z"/><path d="m17 8c.5523 0 1 .4477 1 1s-.4477 1-1 1h-8c-.55228 0-1-.4477-1-1s.44772-1 1-1z"/><path d="m16 14c0-.5523.4477-1 1-1h1c.5523 0 1 .4477 1 1s-.4477 1-1 1h-1c-.5523 0-1-.4477-1-1z"/><path d="m6 8c.55228 0 1 .4477 1 1s-.44772 1-1 1h-1c-.55228 0-1-.4477-1-1s.44772-1 1-1z"/></g><path d="m3.27272727 0c-1.80747272 0-3.27272727 1.49238889-3.27272727 3.33333333v13.33333337c0 1.841 1.46525455 3.3333333 3.27272727 3.3333333h17.45454543c1.8075273 0 3.2727273-1.4923333 3.2727273-3.3333333v-13.33333337c0-1.84094444-1.4652-3.33333333-3.2727273-3.33333333zm17.45454543 2.22222222h-17.45454543c-.60248727 0-1.09090909.49746667-1.09090909 1.11111111v13.33333337c0 .6136666.48842182 1.1111111 1.09090909 1.1111111h17.45454543c.6025091 0 1.0909091-.4974445 1.0909091-1.1111111v-13.33333337c0-.61365555-.4884-1.11111111-1.0909091-1.11111111z"/></g></g></svg>