<svg height="24" viewBox="0 0 24 24" width="24" xmlns="http://www.w3.org/2000/svg"><g fill="none" fill-rule="evenodd"><path d="m0 0h24v24h-24z" fill="#d8d8d8" opacity="0"/><path d="m19.6020069 14.4404063-4.5451438-2.4404063 4.5451438-2.44040625c.3769776-.20240626.5101262-.66824999.295062-1.03240626l-.6225961-1.05440624c-.2150322-.36415625-.6941884-.48434374-1.0619612-.26634374l-4.43408 2.6285.1110637-5.06887502c.0092047-.42040625-.3368028-.76606249-.7668991-.76606249h-1.2451924c-.4300643 0-.7761038.34565624-.7668671.76606249l.1110318 5.06887502-4.43408012-2.62846876c-.36774084-.218-.84692895-.09781251-1.06196113.26634376l-.62259618 1.05440624c-.21503219.36415625-.08188354.83.29509396 1.03240625l4.54511187 2.440375-4.54514383 2.4404063c-.37697751.2024062-.51012615.6682499-.295062 1.0324062l.62259618 1.0544063c.21503218.3641562.69422029.4843437 1.06196113.2663437l4.43408012-2.6285-.1110638 5.068875c-.0092047.4204062.3368348.7660625.7668991.7660625h1.2452244c.4300643 0 .7761038-.3456563.7668991-.7660625l-.1110957-5.068875 4.43408 2.6284687c.3677409.218.846929.0978126 1.0619612-.2663437l.6225961-1.0544063c.2150323-.3641562.0819156-.8299687-.295062-1.0323749z" fill="#e41212" fill-rule="nonzero"/></g></svg>