<svg height="40" viewBox="0 0 40 40" width="40" xmlns="http://www.w3.org/2000/svg"><g fill="none" fill-rule="evenodd"><rect fill="#efebff" fill-rule="nonzero" height="40" rx="4" width="40"/><g stroke-linecap="round" stroke-linejoin="round" stroke-width="2" transform="translate(12 12)"><path d="m5.27586207 2.63793103c0 1.45688828-1.18104276 2.63793104-2.63793104 2.63793104-1.45688827 0-2.63793103-1.18104276-2.63793103-2.63793104 0-1.45688827 1.18104276-2.63793103 2.63793103-2.63793103 1.45688828 0 2.63793104 1.18104276 2.63793104 2.63793103z" stroke="#5e4aff"/><path d="m2.344828 5.568966v5.862069" stroke="#5e4aff"/><path d="m7.03448276 8.79310345h5.27586204c1.2950483 0 2.3448276-1.04977931 2.3448276-2.34482759v-.87931034" stroke="#11d7d8"/><path d="m17 2.63793103c0 1.45688828-1.1810897 2.63793104-2.637931 2.63793104-1.4568414 0-2.6379311-1.18104276-2.6379311-2.63793104 0-1.45688827 1.1810897-2.63793103 2.6379311-2.63793103 1.4568413 0 2.637931 1.18104276 2.637931 2.63793103z" stroke="#11d7d8"/><path d="m5.27586207 14.362069c0 1.4568413-1.18104276 2.637931-2.63793104 2.637931-1.45688827 0-2.63793103-1.1810897-2.63793103-2.637931 0-1.4568414 1.18104276-2.6379311 2.63793103-2.6379311 1.45688828 0 2.63793104 1.1810897 2.63793104 2.6379311z" stroke="#907dff"/></g></g></svg>