<svg clip-rule="evenodd" fill-rule="evenodd" stroke-linejoin="round" stroke-miterlimit="2" viewBox="0 0 24 24" xmlns="http://www.w3.org/2000/svg"><path d="m4 5.5h5c1.105 0 2 .895 2 2v9c0 .552-.448 1-1 1h-6c-.552 0-1-.448-1-1v-10c0-.552.448-1 1-1zm10 14c-.351 0-.687-.06-1-.171v.171c0 .552-.448 1-1 1s-1-.448-1-1v-.171c-.313.111-.649.171-1 .171h-6c-1.657 0-3-1.343-3-3v-10c0-1.657 1.343-3 3-3h5c1.195 0 2.267.524 3 1.354.733-.83 1.805-1.354 3-1.354h5c1.657 0 3 1.343 3 3v10c0 1.657-1.343 3-3 3zm-1-12v9c0 .552.448 1 1 1h6c.552 0 1-.448 1-1v-10c0-.552-.448-1-1-1h-5c-1.105 0-2 .895-2 2zm-8 0h4v2h-4zm10 0h4v2h-4zm4 3h-4v2h4zm-14 0h4v2h-4zm14 3h-4v2h4zm-14 0h4v2h-4z" transform="matrix(.898556 0 0 .898556 1.21733 1.21733)"/></svg>