<svg clip-rule="evenodd" fill-rule="evenodd" height="24" stroke-linecap="round" stroke-linejoin="round" viewBox="0 0 24 24" width="24" xmlns="http://www.w3.org/2000/svg"><path d="m17.25 6.75-10.5 10.5" fill="none" stroke="#000" stroke-width="2" transform="translate(-3 -1)"/><path d="m6.75 6.75 10.5 10.5" fill="none" stroke="#000" stroke-width="2" transform="translate(-3 -1)"/><path d="m18.055 17.413h3.27c.325 0 .574.067.745.201.171.133.257.315.257.545 0 .204-.068.378-.204.52s-.341.213-.617.213h-4.61c-.313 0-.557-.087-.733-.26-.175-.174-.263-.377-.263-.611 0-.15.057-.35.169-.598.113-.249.236-.444.37-.586.555-.576 1.056-1.07 1.503-1.481.447-.412.766-.682.959-.811.342-.243.627-.486.855-.73.227-.244.4-.495.519-.752s.179-.508.179-.755c0-.267-.064-.506-.191-.717s-.301-.374-.52-.491-.458-.176-.717-.176c-.547 0-.977.24-1.29.721-.042.062-.112.233-.21.513s-.209.495-.332.645c-.123.151-.304.226-.542.226-.209 0-.382-.069-.52-.207s-.207-.326-.207-.564c0-.288.065-.588.195-.902.129-.313.322-.597.579-.851.257-.255.582-.461.977-.617.395-.157.857-.235 1.387-.235.639 0 1.184.1 1.635.3.292.134.549.318.771.552.221.233.393.504.516.811.124.307.185.625.185.955 0 .518-.128.989-.385 1.412-.257.424-.519.756-.786.996s-.715.617-1.344 1.131c-.628.513-1.059.912-1.293 1.196-.1.113-.203.249-.307.407z" fill-rule="nonzero" transform="matrix(.857514 0 0 .857514 2.51688 3.83066)"/></svg>