<svg height="40" viewBox="0 0 40 40" width="40" xmlns="http://www.w3.org/2000/svg"><g fill="none" fill-rule="evenodd"><rect fill="#f3ead1" fill-rule="nonzero" height="40" rx="4" width="40"/><g stroke-linecap="round" stroke-width="1.5"><g stroke="#bca257" stroke-linejoin="round" transform="translate(11 10)"><path d="m18 1.24137931c0-.68558896-.5557655-1.24137931-1.2413793-1.24137931h-5.2758621c-1.3712276 0-2.4827586 1.11156828-2.4827586 2.48275862v18.51724138l1.0283586-1.0283586c.9312828-.9312828 2.1942621-1.4544 3.5112414-1.4544h3.2190207c.6856138 0 1.2413793-.5557655 1.2413793-1.2413793z"/><path d="m0 1.24137931c0-.68558896.55579035-1.24137931 1.24137931-1.24137931h5.27586207c1.37122759 0 2.48275862 1.11156828 2.48275862 2.48275862v18.51724138l-1.02835862-1.0283586c-.93128276-.9312828-2.19424966-1.4544-3.51117931-1.4544h-3.21908276c-.68558896 0-1.24137931-.5557655-1.24137931-1.2413793z"/></g><g stroke="#ac8f3f"><path d="m14.5 16.5h2"/><path d="m14.5 19.5h1"/></g></g></g></svg>