<svg height="40" viewBox="0 0 40 40" width="40" xmlns="http://www.w3.org/2000/svg"><g fill="none" fill-rule="evenodd"><rect fill="#f1f3f4" fill-rule="nonzero" height="40" rx="4" width="40"/><g stroke-linecap="round" stroke-linejoin="round" transform="translate(11 11)"><path d="m7.86206897 10.4827586c0-1.44740688 1.17328275-2.62068963 2.62068963-2.62068963h5.8965517c1.4474069 0 2.6206897 1.17328275 2.6206897 2.62068963v5.8965517c0 1.4474069-1.1732828 2.6206897-2.6206897 2.6206897h-5.8965517c-1.44740688 0-2.62068963-1.1732828-2.62068963-2.6206897z" stroke="#868fa1" stroke-width="2"/><g stroke="#b1b9c8" stroke-width="1.5"><path d="m0 5.89655172 1.63793103-1.96551724 1.63793104 1.96551724"/><path d="m8.51724138 3.27586207-1.63793104-1.63793104 1.63793104-1.63793103"/><path d="m17.362069 3.27586207 1.637931-1.63793104-1.637931-1.63793103"/><path d="m0 17.0344828 1.63793103 1.9655172 1.63793104-1.9655172"/><path d="m1.637931 18.017241v-13.103448"/><path d="m18.672414 1.637931h-10.482759"/></g></g></g></svg>