<svg height="50" viewBox="0 0 50 50" width="50" xmlns="http://www.w3.org/2000/svg"><g fill="none" fill-rule="evenodd"><rect fill="#dff7ce" fill-rule="nonzero" height="50" rx="5" width="50"/><g stroke-linecap="round" stroke-linejoin="round" stroke-width="2" transform="translate(13 13)"><path d="m12 24c6.6276 0 12-5.3724 12-12s-5.3724-12-12-12-12 5.3724-12 12 5.3724 12 12 12z" stroke="#1b6031"/><path d="m15.6 7.8c-.822-.822-2.2692-1.3932-3.6-1.4292m-3.6 9.2292c.7728 1.032 2.2116 1.62 3.6 1.6692m0-10.8984c-1.584-.0432-3 .6732-3 2.6292 0 3.6 6.6 1.8 6.6 5.4 0 2.0532-1.7568 2.9352-3.6 2.8692m0-10.8984v-2.1708m0 13.0692v2.5308" stroke="#0e2e19"/></g></g></svg>