<svg height="50" viewBox="0 0 50 50" width="50" xmlns="http://www.w3.org/2000/svg" xmlns:xlink="http://www.w3.org/1999/xlink"><linearGradient id="a" x1="49.999999%" x2="49.999999%" y1=".000003%" y2="100.000006%"><stop offset="0" stop-color="#d9c9fc"/><stop offset="1" stop-color="#b198f8"/></linearGradient><g fill="none" fill-rule="evenodd"><rect fill="#f4efff" fill-rule="nonzero" height="50" rx="5" width="50"/><g transform="translate(10 13)"><path d="m24.8387755 12.2295918c-.1591837.0489796-.3122449.1193878-.45.2112245.1806123-.0948979.3336735-.1653061.45-.2112245z"/><circle cx="24.964286" cy="8.093878" r="1"/><g fill-rule="nonzero"><path d="m30.0336735 11.6326531c.3520408-2.82244902-.5295919-5.77959188-2.3693878-7.95000004s-4.6071428-3.52653061-7.4510204-3.65204082c-1.2826531-.05510204-2.6112245.14387756-3.7071429.80816327-1.0959183.66428571-1.9255102 1.85510204-1.9285714 3.1377551-.0030612 1.07142857.5479592 2.07551021 1.2551021 2.88061225.3948979.44693877.8387755.84489796 1.3255102 1.1877551.9857143.86020408 2.360204 1.39897959 3.2571428 1.39897959.6397959 0 1.2183674-.30612245 1.65-.7622449.217347-.22959183.4010204-.48979592.5510204-.76836734.1775511-.32755102.2387755-.71326531.4132653-1.04693878.0367347-.07040816.1316327-.17755102.2020409-.07346939.1408163.20204082.0122449.60918368-.0275511.82959184-.177551.93979592-.6367347 1.8122449-1.4663265 2.33877551-.9826531.63673471-2.2959184.41938771-3.3704082-.04897959-1.7510204-.76836735-3.1897959-2.1122449-4.0806122-3.80510204-.3826531-.73469388-.722449-1.59489796-1.4816327-1.92857143-.4316326-.18979592-.9214285-.16530612-1.3867347-.12551021-3.65510199.3244898-8.41530608 1.62857143-9.67653057 5.55918368-.34591836 1.0744898-.38571428 2.2102041-.4132653 3.327551-.02755102 1.117347-.04591837 2.2469388-.36428572 3.327551-.08265306.2785715-.18367346.5479592-.30612244.8112245-.12551021.272449-.29081633.5081633-.45306123.7561225-.09183673.1408163-.18061224.3061224-.18061224.4806122 0 .0306123.00612244.0612245.01530612.0887755 1.74795918-2.0663265 2.69081632-4.5857143 2.69081632-4.5857143l-.00306122.1683674c.01530612-.055102.03367347-.1132653.04897959-.1683674.1744898.3459184.33979592.694898.51122449 1.0438776 1.0377551 2.2591837 1.20612245 4.8795918 1.42959184 7.3255102.03367347.3642857.08265306.7408163.22653061 1.0806122.14081633.3336735.33673469.6.71632653.6489796.33367347.0428572.71632653.0336735 1.05.0306123.48061225 0 .97040816-.0061225 1.45714286-.0183674.77142857-4.0561224 2.77653066-4.8887755 3.15306126-5.0081632.8112245-.2938776 1.7510204-.2265306 2.5010204.3122449.8938775.6397959 1.0285714 1.7081632 1.2489796 2.7.1010204.4071428.1683673.8234694.2755102 1.227551.1040816.3948979.3306122.655102.7255102.777551.1989796.0612245.627551.0428572.832653.0367347.2204082-.0030612.4377551-.0061224.6581633-.0091837.1959184 0 .394898-.0030612.5908163-.0030612.7438776-7.8979592 4.6377551-10.6959184 6.2357143-11.522449.1408163-.0918367.2908163-.1622449.45-.2112245.1530612-.0612245.2387755-.0887755.2387755-.0887755l-.0061224.0459184c.2969387-.0214286.6091836.0765306.7806122.3183673.1622449.2295919.1653061.5295919.1561225.8112245-.0612245 1.6561225-.4346939 3.2938776-.394898 4.95.0397959 1.6561225.5877551 3.422449 1.9408163 4.3744898.4622449.3244898 1.2336735.4653061 1.4908164-.0367347.1714285-.3367347-.0122449-.7316326-.1591837-1.0806122-.6489796-1.5551021-.4744898-3.3367347-.0734694-4.977551.4010204-1.6438776 1.0132653-3.2357143 1.2214286-4.9132653zm-4.2887755-3.44693881c-.0459184.43163265-.4346939.74387755-.8663266.69489795-.4316326-.04897959-.7438775-.43469387-.6948979-.86632653.0459183-.43163265.4346938-.74387755.8663265-.69489795.4316327.04591836.7408163.43469387.694898.86632653 0-.00306123 0 0 0 0z" fill="url(#a)"/><path d="m24.8387755 12.2408163c.0214286-.0068965.0428572-.0137931.0642857-.0206896.0551021-.0137931.1102041-.024138.1683674-.0275862l.0061224-.0517242s-.0887755.0275862-.2387755.1z" fill="#b198f8"/><path d="m18.15 23.9632653h.2265306c.4255102.0091837.8418367-.0673469 1.1020408-.4346939.2204082-.3122449.1989796-.7744898.2081633-1.1357143.0673469-3.3918367 1.6867347-7.5122449 4.3102041-9.6612244.1255102-.1040817.2540816-.2020409.3918367-.2908164-1.6010204.8234694-5.4948979 3.6244898-6.2387755 11.522449z" fill="#b198f8"/><path d="m18.15 23.9632653h.2265306c.4255102.0091837.8418367-.0673469 1.1020408-.4346939.2204082-.3122449.1989796-.7744898.2081633-1.1357143.0673469-3.3918367 1.6867347-7.5122449 4.3102041-9.6612244.1255102-.1040817.2540816-.2020409.3918367-.2908164-1.6010204.8234694-5.4948979 3.6244898-6.2387755 11.522449z" fill="#9b87d9"/><path d="m8.16734694 23.9295918c.05816326 0 .11632653 0 .17448979-.0030612.44081633-.0122449.75612245-.2479592.9-.6520408.14387756-.4132653.17142858-.8632653.20204082-1.2979592.03061225-.4132653.04285714-.8418367.15306123-1.2397959.2510204-.8908163.92448982-1.5306123 1.71734692-1.8183674-.3734694.122449-2.37857141.9581633-3.14693876 5.0112245z" fill="#b198f8"/><path d="m8.16734694 23.9295918c.05816326 0 .11632653 0 .17448979-.0030612.44081633-.0122449.75612245-.2479592.9-.6520408.14387756-.4132653.17142858-.8632653.20204082-1.2979592.03061225-.4132653.04285714-.8418367.15306123-1.2397959.2510204-.8908163.92448982-1.5306123 1.71734692-1.8183674-.3734694.122449-2.37857141.9581633-3.14693876 5.0112245z" fill="#9b87d9"/><path d="m.04285714 18.4071429c.00918368.027551.02755102.0520408.04897959.0704081.15612245.1132653.39183674-.0979592.50510205-.1928571.20204081-.1744898.36734693-.3918368.52959183-.6030612.25102041-.3306123.45306123-.694898.60306123-1.0836735.34591836-.8632653.7377551-1.7081633 1.0010204-2.6020408l.00306123-.1683702c0-.0030584-.94285714 2.5132681-2.69081633 4.5795947z" fill="#b198f8"/><path d="m.04285714 18.4071429c.00918368.027551.02755102.0520408.04897959.0704081.15612245.1132653.39183674-.0979592.50510205-.1928571.20204081-.1744898.36734693-.3918368.52959183-.6030612.25102041-.3306123.45306123-.694898.60306123-1.0836735.34591836-.8632653.7377551-1.7081633 1.0010204-2.6020408l.00306123-.1683702c0-.0030584-.94285714 2.5132681-2.69081633 4.5795947z" fill="#9b87d9"/></g></g></g></svg>