<svg height="40" viewBox="0 0 40 40" width="40" xmlns="http://www.w3.org/2000/svg"><g fill="none" fill-rule="evenodd"><rect fill="#e8e8e8" fill-rule="nonzero" height="40" rx="4" width="40"/><g transform="translate(11 13)"><g stroke-linecap="round" stroke-linejoin="round"><path d="m5.90625 4.78125v-2.8125c0-.621315-.503685-1.125-1.125-1.125h-2.8125c-.621315 0-1.125.503685-1.125 1.125v2.8125c0 .621315.503685 1.125 1.125 1.125h2.8125c.621315 0 1.125-.503685 1.125-1.125z" stroke="#bd1563" stroke-width="1.6875"/><g stroke="#7c7c7c" stroke-width="1.5"><path d="m9.84375 1.96875h7.3125"/><path d="m9.84375 10.96875h7.3125"/><path d="m9.84375 4.78125h7.3125"/><path d="m9.84375 13.78125h7.3125"/></g></g><path d="m3.5 13.65625-.64819125.5401125c.1902825.228375.4866525.33975.78021.2932875.2935575-.046575.54100125-.244125.65138625-.5200875zm3.1512375-3.3652125c.316125-.34245.29475-.87615-.0477-1.192275s-.87620625-.29475-1.192275.0477zm-3.90929625 1.1376c-.2983275-.357975-.8303625-.40635-1.18834875-.1081125-.35798625.29835-.40635.8303625-.10803375 1.1883375zm1.54146375 2.540925c.3850875-.9626625.97309125-1.8826875 1.4795325-2.5747875.250875-.3427875.476325-.6224625.637875-.815175.080775-.0963.1452375-.1704375.1886625-.2196.0217125-.0246375.0381375-.0428625.0486-.05445.0052875-.00585.009-.0100125.01125-.012375.001125-.0012375.0018-.002025.0021375-.0023625.000225-.000225.000225-.000225.000225-.000225s-.0001125.0001125-.0001125.0001125c-.0001125.0001125-.0001125.0001125-.000225.000225 0 0-.0001125.0001125-.6201-.572175s-.62008875-.572175-.62019-.57206257c-.000045 0-.0001575.00011257-.0002475.00022507-.00016875.000225-.00037125.00045-.00059625.000675-.00045.00045-.00100125.001125-.00165375.0018-.001305.0014625-.003015.0032625-.00513.005625-.00421875.0046125-.01002375.011025-.01733625.0190125-.01463625.0162-.0353025.0392625-.0614025.06885-.05216625.0590625-.12610125.1441125-.21677625.252225-.18113625.216-.43027875.5252625-.706815.90315-.54822375.74925-1.225845 1.797975-1.6845075 2.9446875zm-2.83784625-1.4607 1.40625 1.6875 1.2963825-1.080225-1.40625-1.6875z" fill="#069650" fill-rule="nonzero"/></g></g></svg>