<svg height="50" viewBox="0 0 50 50" width="50" xmlns="http://www.w3.org/2000/svg"><g fill="none" fill-rule="evenodd"><rect fill="#dbe8fd" fill-rule="nonzero" height="50" rx="5" width="50"/><g transform="translate(15 17)"><path d="m14.6153 4.40786552c-.4074724.26314827-.5246552.8077931-.2609207 1.21520689 1.0323104 1.5991138 1.0469655 3.67434483.0381621 5.28817239-.2579897.4121035-.1331276.9543449.2789758 1.2116311.1447931.0909207.306.1342413.4654483.1342413.2931035 0 .5791724-.1465517.7457138-.4132172 1.3699069-2.18954138 1.3494483-5.00626552-.0516448-7.17458621-.2631483-.408-.8083793-.5258862-1.2157345-.26144827z" fill="#1734b0" opacity=".390033"/><path d="m18.9033448 2.79984138c-.2591034-.41028621-.801931-.53221724-1.212862-.27428621-.4103449.25904483-.5328621.80245862-.2737587 1.21280345 1.7879897 2.83196552 1.7510587 6.46767928-.0937931 9.26271378-.2678379.4050104-.1565172.9501828.249138 1.2181379.1494827.0984242.3171379.1453794.4836207.1453794.2854827 0 .5657482-.1384035.7345172-.3951621 2.2258276-3.3701035 2.2704379-7.75434484.1131379-11.16958622z" fill="#1734b0" opacity=".697437"/><path d="m9.8347931.24691035-5.1104931 3.94927586h-3.55188621c-.64775862 0-1.17241379.52471379-1.17241379 1.17241379v5.862069c0 .647231.52465517 1.1724138 1.17241379 1.1724138h3.55188621l5.1104931 3.9487482c.7708621.5955862 1.8893448.0463104 1.8893448-.9274379v-14.25010344c0-.97363104-1.1184827-1.5229069-1.8893448-.92737931z" stroke="#3416a6" stroke-width="1.5"/></g></g></svg>