<svg height="50" viewBox="0 0 50 50" width="50" xmlns="http://www.w3.org/2000/svg"><g fill="none" fill-rule="evenodd"><rect fill="#ececec" fill-rule="nonzero" height="50" rx="5" width="50"/><path d="m24.9974801 22.8976415h1.8823416v1.1630068h-1.8823416zm-3.3715836 0h2.5198682v1.1630068h-2.5198682zm-2.6509013 0h1.5446792v1.1630068h-1.5446792zm-1.0810235 1.1630068h-2.7315371v-1.1630068h2.7315371zm6.5415778 1.6179854h1.8243846v1.1604508h-1.8243846zm-3.230471 0h1.8873813v1.1604508h-1.8873813zm-1.3405699 0h.6551658v1.1604508h-.6551658zm-2.1166893 0h1.091103v1.1604508h-1.091103zm-1.0104671 1.1604508h-1.5749176v-1.1604508h1.5749176zm9.5225819-8.3378646h-1.262454v-1.1604508h1.262454zm-2.1141694 0h-2.5198682v-1.1604508h2.5198682zm-3.8024811 0h-1.3682884v-1.1604508h1.3682884zm-2.4493119 0h-2.7315371v-1.1604508h2.7315371zm8.3659624 1.6179854h2.5324675v1.1604508h-2.5324675zm-1.0583446 1.1604508h-2.1091297v-1.1604508h2.1091297zm5.8259352 0h-1.2498546v-1.1604508h1.2498546zm-9.0085288 0h-1.2498546v-1.1604508h1.2498546zm-2.3611165 0h-4.4954448v-1.1604508h4.4954448zm17.2006203-6.1192053v13.6289067h-23.7169994v-13.6289067zm-23.7169994 16.9543395v-2.164982h23.7169994v2.164982zm15.0814111 2.727315h-6.4458228v-1.5694203h6.4458228zm-16.2229114-1.5694203h8.6330684v1.5694203h-1.6580732v1.1578947h12.0474898v-1.1578947h-1.6555534v-1.5694203h8.6330684v-19.272685h-26z" fill="#3f3f3f"/></g></svg>